<?xml version="1.0" encoding="UTF-8"?>
<!DOCTYPE svg PUBLIC "-//W3C//DTD SVG 1.1//EN" "http://www.w3.org/Graphics/SVG/1.1/DTD/svg11.dtd">
<!-- Creator: CorelDRAW 2021 (64-Bit) -->
<svg xmlns="http://www.w3.org/2000/svg" xml:space="preserve" width="21.685mm" height="5.08mm" version="1.1" style="shape-rendering:geometricPrecision; text-rendering:geometricPrecision; image-rendering:optimizeQuality; fill-rule:evenodd; clip-rule:evenodd"
viewBox="0 0 273.8 64.14"
 xmlns:xlink="http://www.w3.org/1999/xlink"
 xmlns:xodm="http://www.corel.com/coreldraw/odm/2003">
 <defs>
  <style type="text/css">
   <![CDATA[
    .fil0 {fill:white;fill-rule:nonzero}
   ]]>
  </style>
 </defs>
 <g id="Layer_x0020_1">
  <metadata id="CorelCorpID_0Corel-Layer"/>
  <path class="fil0" d="M6.81 34.8l0 -29.35 -6.81 0 0 29.35 0 6.76 33.86 0 0 -6.76 -27.05 0zm46.21 29.18l0 -8.71 4.4 0 0 0.39 0 0.4 -3.53 0 0 3.13 3.4 0 0 0.39 0 0.4 -3.4 0 0 4 -0.44 0 -0.43 0zm7.15 0l0 -8.71 0.44 0 2.22 0c1.02,0 1.82,0.24 2.39,0.73 0.58,0.49 0.86,1.17 0.86,2.04 0,0.86 -0.29,1.54 -0.86,2.03 -0.44,0.37 -1.02,0.6 -1.73,0.69l2.49 3.22 -0.55 0 -0.55 0 -2.98 -3.97 0.94 0c0.74,0 1.32,-0.18 1.74,-0.52 0.42,-0.35 0.63,-0.83 0.63,-1.45 0,-0.63 -0.21,-1.11 -0.63,-1.46 -0.42,-0.35 -1,-0.53 -1.74,-0.53l-1.78 0 0 7.93 -0.43 0 -0.44 0zm12.88 0.15c-1.29,0 -2.38,-0.44 -3.27,-1.31 -0.89,-0.87 -1.34,-1.94 -1.34,-3.2 0,-1.26 0.44,-2.33 1.34,-3.2 0.89,-0.87 1.98,-1.31 3.27,-1.31 1.29,0 2.38,0.44 3.27,1.31 0.89,0.87 1.34,1.94 1.34,3.2 0,1.26 -0.45,2.33 -1.34,3.2 -0.89,0.87 -1.98,1.31 -3.27,1.31zm0 -0.78c1.05,0 1.93,-0.36 2.65,-1.08 0.72,-0.72 1.08,-1.6 1.08,-2.65 0,-1.04 -0.36,-1.93 -1.08,-2.65 -0.72,-0.72 -1.6,-1.08 -2.65,-1.08 -1.04,0 -1.93,0.36 -2.65,1.08 -0.72,0.72 -1.08,1.61 -1.08,2.65 0,1.05 0.36,1.93 1.08,2.65 0.72,0.72 1.6,1.08 2.65,1.08zm8.32 0.62l-0.43 0 -0.44 0 0 -8.71 0.66 0 0.67 0 3.19 7.53 -0 0 3.19 -7.53 0.66 0 0.67 0 0 8.71 -0.44 0 -0.43 0 0 -7.69 0 0 -3.26 7.69 -0.39 0 -0.39 0 -3.26 -7.69 0 0 0 7.69zm14.58 0l0 -8.71 4.77 0 0 0.39 0 0.4 -3.9 0 0 3.13 3.78 0 0 0.39 0 0.4 -3.78 0 0 3.21 3.9 0 0 0.39 0 0.4 -4.77 0zm7.07 0l3.74 -8.71 0.48 0 0.48 0 3.74 8.71 -0.48 0 -0.48 0 -1.24 -2.94 -4.09 0 -1.23 2.94 -0.46 0 -0.46 0zm4.2 -7.81l-1.71 4.08 3.44 0 -1.73 -4.08 0.01 0zm6.64 7.81l0 -8.71 0.44 0 2.22 0c1.02,0 1.82,0.24 2.39,0.73 0.57,0.49 0.86,1.17 0.86,2.04 0,0.86 -0.29,1.54 -0.86,2.03 -0.44,0.37 -1.02,0.6 -1.73,0.69l2.49 3.22 -0.55 0 -0.55 0 -2.98 -3.97 0.94 0c0.74,0 1.32,-0.18 1.74,-0.52 0.42,-0.35 0.63,-0.83 0.63,-1.45 0,-0.63 -0.21,-1.11 -0.63,-1.46 -0.42,-0.35 -1,-0.53 -1.74,-0.53l-1.78 0 0 7.93 -0.44 0 -0.43 0zm9.82 0l0 -7.92 -1.99 0 0 -0.39 0 -0.4 4.85 0 0 0.39 0 0.4 -1.99 0 0 7.92 -0.44 0 -0.44 0zm5.29 0l0 -8.71 0.44 0 0.44 0 0 3.84 4.51 0 0 -3.84 0.44 0 0.44 0 0 8.71 -0.44 0 -0.44 0 0 -4.08 -4.51 0 0 4.08 -0.44 0 -0.44 0zm13.91 0l0 -7.92 -1.99 0 0 -0.39 0 -0.4 4.85 0 0 0.39 0 0.4 -1.99 0 0 7.92 -0.44 0 -0.44 0zm9.51 0.15c-1.29,0 -2.38,-0.44 -3.27,-1.31 -0.89,-0.87 -1.34,-1.94 -1.34,-3.2 0,-1.26 0.45,-2.33 1.34,-3.2 0.89,-0.87 1.98,-1.31 3.27,-1.31 1.29,0 2.38,0.44 3.27,1.31 0.89,0.87 1.33,1.94 1.33,3.2 0,1.26 -0.44,2.33 -1.33,3.2 -0.89,0.87 -1.98,1.31 -3.27,1.31zm0 -0.78c1.05,0 1.93,-0.36 2.65,-1.08 0.72,-0.72 1.08,-1.6 1.08,-2.65 0,-1.04 -0.36,-1.93 -1.08,-2.65 -0.72,-0.72 -1.6,-1.08 -2.65,-1.08 -1.04,0 -1.93,0.36 -2.65,1.08 -0.72,0.72 -1.08,1.61 -1.08,2.65 0,1.05 0.36,1.93 1.08,2.65 0.72,0.72 1.6,1.08 2.65,1.08zm9.96 0.62l3.74 -8.71 0.48 0 0.48 0 3.74 8.71 -0.48 0 -0.48 0 -1.24 -2.94 -4.09 0 -1.23 2.94 -0.46 0 -0.46 0zm4.2 -7.81l-1.72 4.08 3.44 0 -1.73 -4.08 0.01 0zm6.64 7.81l0 -8.71 0.44 0 2.22 0c1.02,0 1.82,0.24 2.39,0.73 0.57,0.49 0.86,1.17 0.86,2.04 0,0.86 -0.29,1.54 -0.86,2.03 -0.44,0.37 -1.02,0.6 -1.73,0.69l2.49 3.22 -0.55 0 -0.55 0 -2.98 -3.97 0.94 0c0.74,0 1.33,-0.18 1.74,-0.52 0.42,-0.35 0.63,-0.83 0.63,-1.45 0,-0.63 -0.21,-1.11 -0.63,-1.46 -0.42,-0.35 -1,-0.53 -1.74,-0.53l-1.78 0 0 7.93 -0.44 0 -0.44 0zm9.82 0l0 -7.92 -1.99 0 0 -0.39 0 -0.4 4.85 0 0 0.39 0 0.4 -1.99 0 0 7.92 -0.44 0 -0.44 0zm5.29 0l0 -8.71 0.44 0 0.44 0 0 8.71 -0.44 0 -0.44 0zm7.72 -6.5c-0.05,-0.49 -0.22,-0.88 -0.51,-1.16 -0.29,-0.29 -0.64,-0.43 -1.08,-0.43 -0.45,0 -0.82,0.14 -1.13,0.43 -0.31,0.28 -0.46,0.63 -0.46,1.04 0,0.4 0.13,0.72 0.4,0.96 0.27,0.24 0.72,0.45 1.37,0.62 0.86,0.23 1.48,0.56 1.87,0.98 0.39,0.42 0.58,0.98 0.58,1.67 0,0.71 -0.26,1.3 -0.77,1.79 -0.51,0.49 -1.14,0.73 -1.89,0.73 -0.79,0 -1.43,-0.24 -1.92,-0.72 -0.49,-0.48 -0.73,-1.1 -0.73,-1.87l0.86 0c0.07,0.59 0.25,1.04 0.56,1.35 0.3,0.31 0.72,0.46 1.24,0.46 0.51,0 0.94,-0.17 1.29,-0.49 0.35,-0.33 0.53,-0.73 0.53,-1.2 0,-0.49 -0.15,-0.88 -0.46,-1.18 -0.3,-0.29 -0.82,-0.53 -1.55,-0.73 -0.78,-0.21 -1.34,-0.5 -1.69,-0.88 -0.35,-0.37 -0.53,-0.86 -0.53,-1.46 0,-0.64 0.24,-1.19 0.71,-1.64 0.47,-0.44 1.05,-0.67 1.73,-0.67 0.69,0 1.27,0.23 1.74,0.68 0.46,0.45 0.7,1.01 0.7,1.69l-0.85 0zm4.85 6.5l0 -7.92 -1.99 0 0 -0.39 0 -0.4 4.85 0 0 0.39 0 0.4 -1.99 0 0 7.92 -0.44 0 -0.44 0zm5.22 0l0 -8.71 0.44 0 2.22 0c1.02,0 1.82,0.24 2.39,0.73 0.58,0.49 0.86,1.17 0.86,2.04 0,0.86 -0.29,1.54 -0.86,2.03 -0.44,0.37 -1.02,0.6 -1.73,0.69l2.49 3.22 -0.55 0 -0.55 0 -2.98 -3.97 0.94 0c0.74,0 1.32,-0.18 1.74,-0.52 0.42,-0.35 0.63,-0.83 0.63,-1.45 0,-0.63 -0.21,-1.11 -0.63,-1.46 -0.42,-0.35 -1,-0.53 -1.74,-0.53l-1.78 0 0 7.93 -0.44 0 -0.44 0zm10.81 -2.92l-3.04 -5.8 0.5 0 0.51 0 2.5 4.96 0 -0.01 2.47 -4.95 0.48 0 0.49 0 -3.04 5.8 0 2.92 -0.44 0 -0.44 0 0 -2.92zm38.88 -26.27l18.05 0 0 6.76 -18.05 0c-2.44,0 -4.76,-0.46 -6.96,-1.39 -2.2,-0.93 -4.14,-2.23 -5.8,-3.9 -1.67,-1.67 -2.97,-3.6 -3.9,-5.8 -0.93,-2.2 -1.39,-4.52 -1.39,-6.96 0,-2.44 0.46,-4.76 1.39,-6.96 0.93,-2.2 2.23,-4.13 3.92,-5.78 0.83,-0.82 1.72,-1.56 2.68,-2.22 0.96,-0.65 1.98,-1.21 3.04,-1.68 1.07,-0.46 2.19,-0.82 3.38,-1.06 1.19,-0.24 2.4,-0.36 3.64,-0.36l18.05 0 0 6.76 -18.05 0c-3.09,0 -5.75,1.11 -7.97,3.33 -2.22,2.22 -3.33,4.88 -3.33,7.97 0,3.09 1.11,5.75 3.33,7.97 2.22,2.22 4.88,3.33 7.97,3.33zm-31.31 6.76l0 -36.11 6.76 0 0 36.11 -6.76 0zm-37.91 -24.55l0.26 21.15 0.05 3.35 -4.49 0.05 -2.27 0 -0.05 -3.35 -0.41 -32.75 4.8 0 24.97 24.66 0 -24.66 6.76 0 0 36.11 -4.75 0 -24.86 -24.55zm-31.16 -4.8l-13.67 0c-3.1,0 -5.75,1.11 -7.97,3.33 -2.22,2.22 -3.33,4.88 -3.33,7.97 0,3.09 1.11,5.75 3.33,7.97 2.22,2.22 4.87,3.33 7.97,3.33l13.67 0c3.09,0 5.75,-1.11 7.97,-3.33 2.22,-2.22 3.33,-4.88 3.33,-7.97 0,-3.09 -1.11,-5.75 -3.33,-7.97 -2.22,-2.22 -4.87,-3.33 -7.97,-3.33zm-30.33 4.33c0.93,-2.2 2.23,-4.14 3.9,-5.8 1.67,-1.67 3.6,-2.97 5.8,-3.9 2.2,-0.93 4.52,-1.39 6.96,-1.39l13.67 0c2.44,0 4.75,0.46 6.94,1.39 2.18,0.93 4.12,2.24 5.8,3.92 0.83,0.83 1.57,1.72 2.22,2.68 0.65,0.96 1.2,1.98 1.65,3.04 0.45,1.07 0.8,2.19 1.06,3.38 0.26,1.19 0.39,2.4 0.39,3.64 0,2.44 -0.47,4.76 -1.42,6.96 -0.95,2.2 -2.25,4.14 -3.92,5.8 -1.67,1.67 -3.59,2.97 -5.78,3.9 -2.18,0.93 -4.5,1.39 -6.94,1.39l-13.67 0c-2.44,0 -4.76,-0.46 -6.96,-1.39 -2.2,-0.93 -4.14,-2.23 -5.8,-3.9 -1.67,-1.67 -2.97,-3.6 -3.9,-5.8 -0.93,-2.2 -1.39,-4.52 -1.39,-6.96 0,-2.44 0.46,-4.76 1.39,-6.96zm-22.03 18.26l18.05 0 0 6.76 -18.05 0c-2.44,0 -4.76,-0.46 -6.96,-1.39 -2.2,-0.93 -4.14,-2.23 -5.8,-3.9 -1.67,-1.67 -2.97,-3.6 -3.9,-5.8 -0.93,-2.2 -1.39,-4.52 -1.39,-6.96 0,-2.44 0.47,-4.76 1.39,-6.96 0.93,-2.2 2.24,-4.13 3.92,-5.78 0.83,-0.82 1.72,-1.56 2.68,-2.22 0.96,-0.65 1.98,-1.21 3.04,-1.68 1.07,-0.46 2.19,-0.82 3.38,-1.06 1.19,-0.24 2.4,-0.36 3.64,-0.36l18.05 0 0 6.76 -18.05 0c-3.09,0 -5.75,1.11 -7.97,3.33 -2.22,2.22 -3.33,4.88 -3.33,7.97 0,3.09 1.11,5.75 3.33,7.97 2.22,2.22 4.88,3.33 7.97,3.33zm-26.98 -28.05l0 -6.76 6.76 0 0 6.76 -3.82 7.22 -2.73 0 2.32 -7.22 -2.53 0zm-12.14 20.72l-19.6 0 0 -15.06c2.61,0.27 5.02,0.9 7.22,1.88 2.2,0.98 4.07,2.21 5.62,3.69 1.55,1.48 2.85,2.98 3.92,4.51 1.07,1.53 2.01,3.19 2.84,4.98zm2.27 6.76c0.38,1.62 0.71,3.04 0.77,4.28l0.16 3.04 6.77 0 -0.22 -3.71c-0.02,-0.31 -0.08,-0.7 -0.13,-1.16 -0.05,-0.46 -0.24,-1.44 -0.57,-2.94 -0.33,-1.49 -0.7,-2.95 -1.13,-4.36 -0.43,-1.41 -1.08,-3.09 -1.96,-5.05 -0.88,-1.96 -1.86,-3.77 -2.97,-5.42 -1.1,-1.65 -2.5,-3.33 -4.2,-5.05 -1.7,-1.72 -3.56,-3.17 -5.57,-4.36 -2.01,-1.19 -4.41,-2.16 -7.2,-2.92 -2.79,-0.76 -5.78,-1.13 -8.97,-1.13l-3.41 0 0 36.11 6.76 0 0 -7.32 21.87 0z"/>
 </g>
</svg>
