<svg xmlns="http://www.w3.org/2000/svg" xmlns:xlink="http://www.w3.org/1999/xlink" width="180" height="180" viewBox="0 0 180 180">
  <defs>
    <linearGradient id="linear-gradient" x1="0.5" x2="0.5" y2="1" gradientUnits="objectBoundingBox">
      <stop offset="0" stop-color="#00b2e6"/>
      <stop offset="1" stop-color="#2cbfcd"/>
    </linearGradient>
  </defs>
  <g id="Group_2735" data-name="Group 2735" transform="translate(-964 -2770)">
    <circle id="man-wearing-white-dress-shirt-and-black-blazer-2182970" cx="90" cy="90" r="90" transform="translate(964 2770)" fill="url(#linear-gradient)"/>
    <g id="XMLID_996_" transform="translate(1018 2827)">
      <g id="XMLID_41_">
        <path id="XMLID_4218_" d="M312.223,128.6a1.406,1.406,0,0,1-1.989-1.989l.019-.019a1.406,1.406,0,0,1,1.989,1.989Z" transform="translate(-284.223 -111.245)" fill="#fff"/>
        <path id="XMLID_4221_" d="M5.313,50.656l-4.9-4.9a1.406,1.406,0,0,1,.994-2.4h10.16A30.658,30.658,0,1,1,63.021,72.333a30.876,30.876,0,0,1-5.635,4.458l4.237,7.485a1.406,1.406,0,0,1-1.224,2.1H53.156a1.406,1.406,0,0,1-1.224-.714l-3-5.292a31.026,31.026,0,0,1-15.186,0l-3,5.292a1.406,1.406,0,0,1-1.224.714H22.289a1.406,1.406,0,0,1-1.224-2.1L25.3,76.791a30.882,30.882,0,0,1-5.635-4.458,30.552,30.552,0,0,1-8.1-14.375H1.406a1.406,1.406,0,0,1-.995-2.4ZM7.885,49.25H17.7l-3.083-3.083H4.8ZM53.976,83.562h4.01l-3.061-5.407a30.236,30.236,0,0,1-3.232,1.375Zm-29.275,0h4.01l2.283-4.033a30.236,30.236,0,0,1-3.232-1.375ZM21.655,70.345a27.969,27.969,0,0,0,6.166,4.663c.028.013.055.026.083.041s.032.021.049.031a27.48,27.48,0,0,0,5.392,2.258,1.393,1.393,0,0,1,.218.063,28.117,28.117,0,0,0,15.562,0,1.4,1.4,0,0,1,.219-.063,27.478,27.478,0,0,0,5.392-2.258c.016-.01.032-.021.049-.031s.055-.028.082-.041a27.966,27.966,0,0,0,6.166-4.664A27.844,27.844,0,1,0,14.47,43.354H15.2a1.406,1.406,0,0,1,.994.412L19.925,47.5a21.666,21.666,0,0,1,2.451-7.3,1.406,1.406,0,1,1,2.462,1.359,18.674,18.674,0,0,0-2.272,7.7h6.2a12.66,12.66,0,1,1,0,2.812H22.573a18.825,18.825,0,1,0,9.669-17.912,1.406,1.406,0,1,1-1.359-2.462,21.812,21.812,0,0,1,13.355-2.5A21.657,21.657,0,1,1,19.92,53.819l-3.727,3.727a1.406,1.406,0,0,1-.994.412H14.47A27.753,27.753,0,0,0,21.655,70.345ZM36.751,48a1.406,1.406,0,0,1,1.921-.515l3.375,1.949a1.406,1.406,0,0,1,0,2.436l-3.375,1.948a1.4,1.4,0,0,1-2-1.76H31.6a9.768,9.768,0,0,0,2.783,5.554h0A9.842,9.842,0,1,0,31.6,49.25h5.073A1.4,1.4,0,0,1,36.751,48ZM14.615,55.146,17.7,52.062H7.885L4.8,55.146Z" transform="translate(0 -20)" fill="#fff"/>
      </g>
    </g>
  </g>
</svg>
