<svg xmlns="http://www.w3.org/2000/svg" xmlns:xlink="http://www.w3.org/1999/xlink" width="180" height="180" viewBox="0 0 180 180">
  <defs>
    <linearGradient id="linear-gradient" x1="0.5" x2="0.5" y2="1" gradientUnits="objectBoundingBox">
      <stop offset="0" stop-color="#5cd195"/>
      <stop offset="1" stop-color="#238352"/>
    </linearGradient>
  </defs>
  <g id="Group_637" data-name="Group 637" transform="translate(-1680 -2934)">
    <circle id="man-wearing-white-dress-shirt-and-black-blazer-2182970" cx="90" cy="90" r="90" transform="translate(1680 2934)" fill="url(#linear-gradient)"/>
    <g id="product" transform="translate(1739 2996.898)">
      <path id="Path_789" data-name="Path 789" d="M61.861,38.953a4.107,4.107,0,0,0-3.352-2.975V12.419h2.053a1.027,1.027,0,0,0,1.026-1.026V1.128A1.026,1.026,0,0,0,60.562.1H15.4a1.026,1.026,0,0,0-1.026,1.026V11.393A1.027,1.027,0,0,0,15.4,12.419H17.45v20.53H16.424a13.219,13.219,0,0,0-7.185,2.1V29.869a1.026,1.026,0,0,0-1.026-1.026H1.026A1.026,1.026,0,0,0,0,29.869V53.478A1.027,1.027,0,0,0,1.026,54.5H8.212a1.027,1.027,0,0,0,1.026-1.026V48.3a13.232,13.232,0,0,0,7.185,2.1H33.278a13.517,13.517,0,0,0,3.458-.456l22.224-5.953a4.122,4.122,0,0,0,2.9-5.036ZM16.424,2.154H59.535v8.212H16.424ZM19.5,12.419H56.456V36.155L44.543,39.349a4.126,4.126,0,0,0-2.715-2.384L28,33.256a9.329,9.329,0,0,0-2.386-.308H19.5ZM7.185,52.452H2.053V30.9H7.185ZM58.428,42.006l-22.22,5.953a11.425,11.425,0,0,1-2.93.386H16.424a11.214,11.214,0,0,1-6.775-2.258l-.41-.308V37.568l.41-.308A11.207,11.207,0,0,1,16.424,35h9.187a7.255,7.255,0,0,1,1.859.241L41.3,38.949A2.07,2.07,0,0,1,42.8,40.717a1,1,0,0,0,.041.124,1.011,1.011,0,0,0-.027.134,1.749,1.749,0,0,1-.068.494,2.053,2.053,0,0,1-1.979,1.518,2.024,2.024,0,0,1-.535-.068l-8.725-2.34a1.027,1.027,0,1,0-.532,1.982L39.705,44.9a4.175,4.175,0,0,0,1.069.137,4.1,4.1,0,0,0,3.951-3.016,3.677,3.677,0,0,0,.116-.629L57.354,38.04c.089-.023.186-.046.277-.061a2.053,2.053,0,0,1,2.247,1.51,2,2,0,0,1,.068.532,2.053,2.053,0,0,1-1.518,1.985Zm0,0" fill="#fff"/>
      <path id="Path_790" data-name="Path 790" d="M249.026,114.155h10.265a1.026,1.026,0,0,0,0-2.053H249.026a1.026,1.026,0,0,0,0,2.053Zm0,0" transform="translate(-216.179 -97.63)" fill="#fff"/>
    </g>
  </g>
</svg>
