<svg xmlns="http://www.w3.org/2000/svg" xmlns:xlink="http://www.w3.org/1999/xlink" width="180" height="180" viewBox="0 0 180 180">
  <defs>
    <linearGradient id="linear-gradient" x1="0.5" x2="0.5" y2="1" gradientUnits="objectBoundingBox">
      <stop offset="0" stop-color="#00b2e6"/>
      <stop offset="1" stop-color="#2cbfcd"/>
    </linearGradient>
  </defs>
  <g id="Group_638" data-name="Group 638" transform="translate(-874 -2231)">
    <circle id="man-wearing-white-dress-shirt-and-black-blazer-2182970" cx="90" cy="90" r="90" transform="translate(874 2231)" fill="url(#linear-gradient)"/>
    <g id="scope" transform="translate(934.912 2288.023)">
      <path id="Path_782" data-name="Path 782" d="M131.908,33.726a3.767,3.767,0,1,1,3.767-3.767A3.772,3.772,0,0,1,131.908,33.726Zm0-5.24a1.473,1.473,0,1,0,1.472,1.472A1.473,1.473,0,0,0,131.908,28.486Zm0,0" transform="translate(-92.917 -21.79)" fill="#fff"/>
      <path id="Path_783" data-name="Path 783" d="M220.654,326.566a3.767,3.767,0,1,1-3.767,3.767A3.772,3.772,0,0,1,220.654,326.566Zm0,5.24a1.473,1.473,0,1,0-1.472-1.472A1.474,1.474,0,0,0,220.654,331.806Zm0,0" transform="translate(-195.028 -278.032)" fill="#fff"/>
      <path id="Path_784" data-name="Path 784" d="M51.25,19.345a1.774,1.774,0,1,0,1.774-1.774A1.774,1.774,0,0,0,51.25,19.345Zm0,0" transform="translate(-1.35 -14.618)" fill="#fff"/>
      <path id="Path_785" data-name="Path 785" d="M337.969,333.372a1.774,1.774,0,1,0,1.774-1.774A1.774,1.774,0,0,0,337.969,333.372Zm0,0" transform="translate(-329.941 -282.218)" fill="#fff"/>
      <path id="Path_786" data-name="Path 786" d="M350.452,224.612a1.146,1.146,0,0,1,1.622,0l1.217,1.216,1.216-1.216a1.147,1.147,0,0,1,1.622,1.622l-1.216,1.216,1.216,1.217a1.147,1.147,0,1,1-1.622,1.622l-1.216-1.217-1.217,1.217a1.147,1.147,0,0,1-1.622-1.622l1.217-1.217-1.217-1.216A1.147,1.147,0,0,1,350.452,224.612Zm0,0" transform="translate(-346.93 -190.423)" fill="#fff"/>
      <path id="Path_787" data-name="Path 787" d="M28.447,155.2a1.147,1.147,0,0,1-1.622,0l-1.217-1.216L24.391,155.2a1.147,1.147,0,0,1-1.622-1.622l1.216-1.216-1.216-1.216a1.147,1.147,0,1,1,1.622-1.623l1.216,1.217,1.217-1.217a1.147,1.147,0,1,1,1.622,1.623l-1.217,1.216,1.217,1.216a1.146,1.146,0,0,1,0,1.622Zm0,0" transform="translate(29.509 -126.667)" fill="#fff"/>
      <path id="Path_788" data-name="Path 788" d="M.674,12.309,12.69.293a1.071,1.071,0,0,1,1.472,0L30.851,16.982a1.04,1.04,0,0,1,0,1.472l-1.267,1.267L41.532,31.668a1.041,1.041,0,0,1,0,1.473l-.6.6L57.553,50.36l2.586,2.586.453-.453a1.041,1.041,0,1,1,1.472,1.472l-1.112,1.112a.92.92,0,0,1-.061.092l-5.34,5.34a.992.992,0,0,1-.094.063l-1.465,1.465a1.041,1.041,0,1,1-1.472-1.472l.807-.807L50.74,57.172,34.119,40.552l-.6.6a1.041,1.041,0,0,1-1.472,0L20.1,29.2,18.835,30.47a1.041,1.041,0,0,1-1.472,0L4.011,17.119.674,13.781a1.04,1.04,0,0,1,0-1.472ZM58.666,54.418l-1.849-1.849-3.868,3.868L54.8,58.286Zm-7.19.546L55.344,51.1,39.46,35.211l-3.868,3.868ZM32.785,38.942,39.323,32.4,28.112,21.193l-6.538,6.538ZM18.1,28.261,19.363,27h0l8.008-8.008v0h0l1.265-1.265L16.764,5.839,6.22,16.383ZM4.747,14.911,15.291,4.367,13.426,2.5,2.882,13.045Zm0,0" transform="translate(-0.369 0)" fill="#fff"/>
    </g>
  </g>
</svg>
